<svg width="54" height="55" viewBox="0 0 54 55" fill="none" xmlns="http://www.w3.org/2000/svg">
<path d="M51.5233 0.770508H2.93481C1.76631 0.770508 0.822266 1.73769 0.822266 2.93483V52.7142C0.822266 53.9114 1.76631 54.8786 2.93481 54.8786H51.5233C52.6918 54.8786 53.6359 53.9114 53.6359 52.7142V2.93483C53.6359 1.73769 52.6918 0.770508 51.5233 0.770508ZM45.4234 16.5633H41.2049C37.8974 16.5633 37.2571 18.173 37.2571 20.5402V25.7549H45.1527L44.1228 33.9185H37.2571V54.8786H29.0247V33.9252H22.1392V25.7549H29.0247V19.7354C29.0247 12.7487 33.1904 8.94083 39.2772 8.94083C42.1951 8.94083 44.6972 9.16402 45.43 9.26547V16.5633H45.4234Z" fill="black"/>
</svg>
