<svg width="59" height="60" viewBox="0 0 59 60" fill="none" xmlns="http://www.w3.org/2000/svg">
<path fill-rule="evenodd" clip-rule="evenodd" d="M17.5316 0.177356C20.6083 0.0322466 21.5893 0 29.4266 0C37.2639 0 38.2449 0.0349338 41.319 0.177356C44.393 0.319779 46.4914 0.822289 48.3274 1.55053C50.25 2.29488 51.9943 3.45845 53.4369 4.96329C54.9057 6.43858 56.0389 8.22289 56.7628 10.1953C57.4762 12.0764 57.9641 14.2261 58.1057 17.3702C58.2474 20.5277 58.2788 21.5327 58.2788 29.5594C58.2788 37.5888 58.2447 38.5938 58.1057 41.7459C57.9667 44.89 57.4762 47.0398 56.7628 48.9208C56.0388 50.8935 54.9039 52.6808 53.4369 54.1582C51.9943 55.663 50.25 56.8239 48.3274 57.5656C46.4914 58.2965 44.393 58.7963 41.3242 58.9415C38.2449 59.0866 37.2639 59.1188 29.4266 59.1188C21.5893 59.1188 20.6083 59.0839 17.5316 58.9415C14.4628 58.799 12.3644 58.2965 10.5284 57.5656C8.60293 56.8238 6.85841 55.661 5.41627 54.1582C3.94843 52.682 2.81253 50.8956 2.08777 48.9235C1.37696 47.0424 0.889093 44.8927 0.747454 41.7486C0.605816 38.5911 0.574341 37.5861 0.574341 29.5594C0.574341 21.53 0.608439 20.525 0.747454 17.3756C0.88647 14.2261 1.37696 12.0764 2.08777 10.1953C2.8136 8.22311 3.95037 6.43673 5.41889 4.96061C6.85899 3.45711 8.60175 2.29339 10.5257 1.55053C12.3618 0.822289 14.4601 0.322466 17.529 0.177356H17.5316ZM41.0855 5.49805C38.0429 5.35563 37.1301 5.32607 29.4266 5.32607C21.723 5.32607 20.8103 5.35563 17.7677 5.49805C14.9533 5.62972 13.4267 6.11073 12.409 6.51651C11.0634 7.05395 10.1008 7.69082 9.091 8.7254C8.13375 9.6795 7.39706 10.841 6.93495 12.1247C6.53889 13.1674 6.06938 14.7313 5.94086 17.6147C5.80184 20.7319 5.77299 21.667 5.77299 29.5594C5.77299 37.4518 5.80184 38.3869 5.94086 41.5041C6.06938 44.3875 6.53889 45.9514 6.93495 46.9941C7.39659 48.2759 8.13363 49.4394 9.091 50.3934C10.0221 51.3742 11.1579 52.1294 12.409 52.6023C13.4267 53.0081 14.9533 53.4891 17.7677 53.6208C20.8103 53.7632 21.7204 53.7927 29.4266 53.7927C37.1328 53.7927 38.0429 53.7632 41.0855 53.6208C43.8999 53.4891 45.4265 53.0081 46.4442 52.6023C47.7897 52.0649 48.7523 51.428 49.7622 50.3934C50.7195 49.4394 51.4566 48.2759 51.9182 46.9941C52.3143 45.9514 52.7838 44.3875 52.9123 41.5041C53.0513 38.3869 53.0802 37.4518 53.0802 29.5594C53.0802 21.667 53.0513 20.7319 52.9123 17.6147C52.7838 14.7313 52.3143 13.1674 51.9182 12.1247C51.3936 10.7462 50.772 9.75998 49.7622 8.7254C48.8308 7.74476 47.6972 6.99002 46.4442 6.51651C45.4265 6.11073 43.8999 5.62972 41.0855 5.49805ZM25.7414 38.6718C27.7995 39.5495 30.0912 39.668 32.2251 39.0069C34.359 38.3459 36.2026 36.9463 37.4412 35.0474C38.6798 33.1484 39.2365 30.8677 39.0161 28.595C38.7958 26.3222 37.8121 24.1983 36.2331 22.5861C35.2265 21.5555 34.0094 20.7663 32.6694 20.2755C31.3294 19.7846 29.8998 19.6042 28.4836 19.7473C27.0674 19.8904 25.6998 20.3535 24.4792 21.1031C23.2586 21.8527 22.2155 22.8702 21.4248 24.0825C20.6342 25.2947 20.1157 26.6714 19.9067 28.1136C19.6977 29.5557 19.8034 31.0274 20.2163 32.4227C20.6291 33.8179 21.3387 35.1021 22.2941 36.1827C23.2495 37.2632 24.4268 38.1133 25.7414 38.6718Z" fill="black"/>
<path fill-rule="evenodd" clip-rule="evenodd" d="M18.9401 18.818C20.3172 17.4071 21.952 16.288 23.7513 15.5244C25.5506 14.7609 27.479 14.3679 29.4266 14.3679C31.3741 14.3679 33.3025 14.7609 35.1018 15.5244C36.9011 16.288 38.5359 17.4071 39.913 18.818C41.2901 20.2289 42.3825 21.9038 43.1278 23.7472C43.8731 25.5905 44.2567 27.5662 44.2567 29.5615C44.2567 31.5568 43.8731 33.5325 43.1278 35.3758C42.3825 37.2192 41.2901 38.8941 39.913 40.305C37.1318 43.1544 33.3597 44.7551 29.4266 44.7551C25.4934 44.7551 21.7213 43.1544 18.9401 40.305C16.1589 37.4557 14.5964 33.5911 14.5964 29.5615C14.5964 25.5319 16.1589 21.6674 18.9401 18.818ZM47.5458 16.6306C47.887 16.3008 48.1602 15.9042 48.3492 15.4643C48.5381 15.0244 48.639 14.5501 48.6459 14.0695C48.6527 13.5889 48.5654 13.1118 48.389 12.6664C48.2126 12.2211 47.9508 11.8165 47.6191 11.4766C47.2874 11.1368 46.8925 10.8686 46.4577 10.6879C46.023 10.5072 45.5573 10.4177 45.0883 10.4247C44.6192 10.4317 44.1562 10.5351 43.7268 10.7287C43.2975 10.9223 42.9103 11.2021 42.5884 11.5518C41.9624 12.2317 41.6196 13.1349 41.6329 14.0695C41.6462 15.0041 42.0145 15.8967 42.6597 16.5576C43.3048 17.2186 44.176 17.5959 45.0883 17.6096C46.0005 17.6232 46.8821 17.272 47.5458 16.6306Z" fill="black"/>
<ellipse cx="29.4268" cy="29.5589" rx="10.4917" ry="10.7489" fill="#E1AA43"/>
</svg>
