<svg width="56" height="58" viewBox="0 0 56 58" fill="none" xmlns="http://www.w3.org/2000/svg">
<g clip-path="url(#clip0_159_129)">
<path d="M27.6265 0.768066C42.8531 0.768066 55.2422 11.0666 55.2422 23.7275C55.2422 28.7954 53.3263 33.3576 49.3221 37.8526C43.5297 44.6852 30.5744 53.0068 27.6265 54.2799C24.7613 55.5177 25.0927 53.5832 25.2239 52.8193L25.2343 52.7557L25.6278 50.3331C25.721 49.6117 25.8176 48.4906 25.538 47.7762C25.2273 46.9875 24.0054 46.5773 23.1078 46.3792C9.83503 44.5862 0.0107422 35.0764 0.0107422 23.7275C0.0107422 11.0666 12.4033 0.768066 27.6265 0.768066Z" fill="black"/>
<path d="M17.3465 27.9498H12.0823V18.1606C12.0823 18.0149 12.026 17.8751 11.9258 17.7717C11.8255 17.6684 11.6895 17.6098 11.5472 17.6089H9.60723C9.53651 17.6089 9.46649 17.6232 9.40115 17.6509C9.33582 17.6786 9.27646 17.7192 9.22645 17.7705C9.17645 17.8217 9.13678 17.8825 9.10972 17.9495C9.08265 18.0164 9.06873 18.0881 9.06873 18.1606V30.4891C9.06873 30.6341 9.12741 30.772 9.22061 30.8675V30.871L9.22752 30.8781L9.23442 30.8852C9.33453 30.9838 9.46834 31.0384 9.60723 31.0373H17.3465C17.6434 31.0373 17.8816 30.7897 17.8816 30.4855V28.5051C17.882 28.4326 17.8686 28.3608 17.8419 28.2937C17.8153 28.2266 17.776 28.1655 17.7263 28.1139C17.6766 28.0624 17.6175 28.0213 17.5524 27.9932C17.4872 27.965 17.4173 27.9503 17.3465 27.9498ZM20.077 17.6089C19.9342 17.6089 19.7973 17.667 19.6963 17.7705C19.5953 17.8739 19.5385 18.0143 19.5385 18.1606V30.4891C19.5385 30.7932 19.7802 31.0373 20.077 31.0373H22.017C22.3139 31.0373 22.5521 30.7897 22.5521 30.4891V18.1606C22.5521 18.0149 22.4958 17.8751 22.3956 17.7717C22.2954 17.6684 22.1593 17.6098 22.017 17.6089H20.077ZM33.412 17.6089C33.2692 17.6089 33.1322 17.667 33.0312 17.7705C32.9302 17.8739 32.8735 18.0143 32.8735 18.1606V25.4813L27.3607 17.8564C27.3468 17.8379 27.3318 17.8202 27.3158 17.8034V17.7999C27.3049 17.7875 27.2934 17.7757 27.2813 17.7645L27.2709 17.7539C27.2591 17.7423 27.2464 17.7316 27.233 17.7221H27.2295L27.2123 17.7079L27.2019 17.7008C27.1965 17.6967 27.1907 17.6932 27.1846 17.6902L27.157 17.6725H27.1501L27.1398 17.6655L27.1052 17.6513L27.0914 17.6443C27.0801 17.6401 27.0686 17.6365 27.0569 17.6336H27.05L27.0397 17.6301L27.0086 17.623H26.9879L26.9775 17.6195H26.9637L26.9568 17.616H24.9754C24.8332 17.616 24.6967 17.6736 24.5958 17.7763C24.4949 17.879 24.4378 18.0184 24.4369 18.1641V30.4926C24.4369 30.7968 24.6785 31.0408 24.9754 31.0408H26.9085C27.2088 31.0408 27.4504 30.7932 27.4504 30.4926V23.1719L32.9736 30.8109C33.0103 30.8635 33.0559 30.9091 33.1082 30.9453L33.1117 30.9488L33.1462 30.9701L33.16 30.9771C33.1689 30.9825 33.1781 30.9872 33.1876 30.9913L33.2118 31.0019L33.229 31.009C33.2404 31.0129 33.2519 31.0164 33.2635 31.0196H33.2739C33.3188 31.0328 33.3652 31.0399 33.412 31.0408H35.3451C35.6454 31.0408 35.887 30.7932 35.887 30.4926V18.1606C35.887 18.0143 35.8303 17.8739 35.7293 17.7705C35.6283 17.667 35.4914 17.6089 35.3485 17.6089H33.412ZM46.5812 20.1446V18.1641C46.5817 18.0917 46.5682 18.0198 46.5416 17.9527C46.5149 17.8856 46.4756 17.8245 46.4259 17.773C46.3763 17.7214 46.3172 17.6804 46.252 17.6522C46.1868 17.6241 46.1169 17.6093 46.0462 17.6089H38.3069C38.1676 17.6091 38.0338 17.6649 37.9341 17.7645H37.9306L37.9272 17.7716L37.9202 17.7822C37.8238 17.8835 37.7694 18.0191 37.7684 18.1606V30.4891C37.7684 30.6341 37.827 30.772 37.9202 30.8675L37.9272 30.8781L37.9341 30.8852C38.0344 30.9835 38.168 31.038 38.3069 31.0373H46.0462C46.343 31.0373 46.5812 30.7897 46.5812 30.4855V28.5051C46.5817 28.4326 46.5682 28.3608 46.5416 28.2937C46.5149 28.2266 46.4756 28.1655 46.4259 28.1139C46.3763 28.0624 46.3172 28.0213 46.252 27.9932C46.1868 27.965 46.1169 27.9503 46.0462 27.9498H40.7785V25.8668H46.0427C46.3396 25.8668 46.5778 25.6192 46.5778 25.3151V23.3346C46.5782 23.2621 46.5648 23.1903 46.5381 23.1232C46.5115 23.0561 46.4722 22.995 46.4225 22.9434C46.3728 22.8919 46.3137 22.8509 46.2485 22.8227C46.1834 22.7945 46.1134 22.7798 46.0427 22.7794H40.7785V20.6963H46.0427C46.3396 20.6963 46.5778 20.4488 46.5778 20.1446H46.5812Z" fill="#E1AA43"/>
</g>
<defs>
<clipPath id="clip0_159_129">
<rect width="55.2314" height="56.5852" fill="white" transform="translate(0.0107422 0.768066)"/>
</clipPath>
</defs>
</svg>
