<svg width="49" height="58" viewBox="0 0 49 58" fill="none" xmlns="http://www.w3.org/2000/svg">
<path d="M25.6176 0.0481842C28.6788 0 31.7225 0.0285536 34.7627 0C34.9469 3.64237 36.2346 7.35255 38.8555 9.92773C41.4711 12.5671 45.1709 13.7753 48.7707 14.184V23.7655C45.3972 23.6531 42.0079 22.9392 38.9467 21.4616C37.6134 20.8477 36.3714 20.0571 35.1557 19.2487C35.1399 26.2015 35.1838 33.1454 35.1118 40.0696C34.9294 43.3961 33.8505 46.7065 31.9488 49.4477C28.8893 54.0109 23.5791 56.9858 18.125 57.0786C14.7796 57.2731 11.4376 56.3451 8.58692 54.6355C3.8626 51.8016 0.538219 46.6137 0.054034 41.0458C-0.00695432 39.8666 -0.0163199 38.6852 0.0259652 37.5051C0.446996 32.9776 2.64863 28.6464 6.066 25.7C9.93948 22.2682 15.3655 20.6335 20.4459 21.6008C20.4933 25.1254 20.3547 28.6464 20.3547 32.171C18.0338 31.4072 15.3216 31.6213 13.2937 33.0543C11.81 34.0487 10.6887 35.5116 10.1026 37.2178C9.61844 38.4242 9.75703 39.7644 9.7851 41.0458C10.3412 44.9505 14.0322 48.2324 17.9724 47.8772C20.5845 47.8487 23.0879 46.3068 24.4492 44.0493C24.8896 43.2587 25.3825 42.4503 25.4088 41.5205C25.6386 37.2642 25.5474 33.0258 25.5755 28.7695C25.5948 19.1773 25.5474 9.61185 25.6193 0.0499688L25.6176 0.0481842Z" fill="black"/>
</svg>
